<?xml version="1.0" encoding="UTF-8" standalone="no"?>
<!DOCTYPE svg PUBLIC "-//W3C//DTD SVG 1.1//EN"
 "http://www.w3.org/Graphics/SVG/1.1/DTD/svg11.dtd">
<!-- Generated by graphviz version 9.0.0 (20230911.1827)
 -->
<!-- Pages: 1 -->
<svg width="462pt" height="498pt"
 viewBox="0.00 0.00 462.45 497.77" xmlns="http://www.w3.org/2000/svg" xmlns:xlink="http://www.w3.org/1999/xlink">
<g id="graph0" class="graph" transform="scale(1 1) rotate(0) translate(4 493.77)">
<g id="clust1" class="cluster">
<title>cluster10402 x 15</title>
<path fill="none" stroke="black" d="M20,-254.54C20,-254.54 102,-254.54 102,-254.54 108,-254.54 114,-260.54 114,-266.54 114,-266.54 114,-340.54 114,-340.54 114,-346.54 108,-352.54 102,-352.54 102,-352.54 20,-352.54 20,-352.54 14,-352.54 8,-346.54 8,-340.54 8,-340.54 8,-266.54 8,-266.54 8,-260.54 14,-254.54 20,-254.54"/>
<text text-anchor="middle" x="75.25" y="-261.74" font-family="Times,serif" font-size="14.00">10402 x 15</text>
</g>
<g id="clust2" class="cluster">
<title>cluster15</title>
<path fill="none" stroke="black" d="M238,-254.54C238,-254.54 320,-254.54 320,-254.54 326,-254.54 332,-260.54 332,-266.54 332,-266.54 332,-469.77 332,-469.77 332,-475.77 326,-481.77 320,-481.77 320,-481.77 238,-481.77 238,-481.77 232,-481.77 226,-475.77 226,-469.77 226,-469.77 226,-266.54 226,-266.54 226,-260.54 232,-254.54 238,-254.54"/>
<text text-anchor="middle" x="317.25" y="-261.74" font-family="Times,serif" font-size="14.00">15</text>
</g>
<g id="clust3" class="cluster">
<title>cluster10402</title>
<path fill="none" stroke="black" d="M129,-8C129,-8 211,-8 211,-8 217,-8 223,-14 223,-20 223,-20 223,-223.23 223,-223.23 223,-229.23 217,-235.23 211,-235.23 211,-235.23 129,-235.23 129,-235.23 123,-235.23 117,-229.23 117,-223.23 117,-223.23 117,-20 117,-20 117,-14 123,-8 129,-8"/>
<text text-anchor="middle" x="198.12" y="-15.2" font-family="Times,serif" font-size="14.00">10402</text>
</g>
<!-- Z -->
<g id="node1" class="node">
<title>Z</title>
<path fill="lightgrey" stroke="black" d="M93.75,-344.54C93.75,-344.54 28.25,-344.54 28.25,-344.54 22.25,-344.54 16.25,-338.54 16.25,-332.54 16.25,-332.54 16.25,-299.04 16.25,-299.04 16.25,-293.04 22.25,-287.04 28.25,-287.04 28.25,-287.04 93.75,-287.04 93.75,-287.04 99.75,-287.04 105.75,-293.04 105.75,-299.04 105.75,-299.04 105.75,-332.54 105.75,-332.54 105.75,-338.54 99.75,-344.54 93.75,-344.54"/>
<text text-anchor="middle" x="61" y="-327.24" font-family="Times,serif" font-size="14.00">Z</text>
<text text-anchor="middle" x="61" y="-310.74" font-family="Times,serif" font-size="14.00">~</text>
<text text-anchor="middle" x="61" y="-294.24" font-family="Times,serif" font-size="14.00">ConstantData</text>
</g>
<!-- μ -->
<g id="node7" class="node">
<title>μ</title>
<polygon fill="none" stroke="black" points="215.12,-227.23 124.88,-227.23 124.88,-169.73 215.12,-169.73 215.12,-227.23"/>
<text text-anchor="middle" x="170" y="-209.93" font-family="Times,serif" font-size="14.00">μ</text>
<text text-anchor="middle" x="170" y="-193.43" font-family="Times,serif" font-size="14.00">~</text>
<text text-anchor="middle" x="170" y="-176.93" font-family="Times,serif" font-size="14.00">Deterministic</text>
</g>
<!-- Z&#45;&gt;μ -->
<g id="edge4" class="edge">
<title>Z&#45;&gt;μ</title>
<path fill="none" stroke="black" d="M85.69,-286.61C94.79,-276.4 105.25,-264.85 115,-254.54 120.94,-248.26 127.35,-241.68 133.62,-235.34"/>
<polygon fill="black" stroke="black" points="135.8,-238.11 140.37,-228.56 130.84,-233.18 135.8,-238.11"/>
</g>
<!-- τ -->
<g id="node2" class="node">
<title>τ</title>
<ellipse fill="none" stroke="black" cx="397" cy="-433.11" rx="57.45" ry="40.66"/>
<text text-anchor="middle" x="397" y="-444.56" font-family="Times,serif" font-size="14.00">τ</text>
<text text-anchor="middle" x="397" y="-428.06" font-family="Times,serif" font-size="14.00">~</text>
<text text-anchor="middle" x="397" y="-411.56" font-family="Times,serif" font-size="14.00">HalfCauchy</text>
</g>
<!-- b -->
<g id="node5" class="node">
<title>b</title>
<polygon fill="none" stroke="black" points="324.12,-344.54 233.88,-344.54 233.88,-287.04 324.12,-287.04 324.12,-344.54"/>
<text text-anchor="middle" x="279" y="-327.24" font-family="Times,serif" font-size="14.00">b</text>
<text text-anchor="middle" x="279" y="-310.74" font-family="Times,serif" font-size="14.00">~</text>
<text text-anchor="middle" x="279" y="-294.24" font-family="Times,serif" font-size="14.00">Deterministic</text>
</g>
<!-- τ&#45;&gt;b -->
<g id="edge1" class="edge">
<title>τ&#45;&gt;b</title>
<path fill="none" stroke="black" d="M363.82,-399.68C348.72,-384.93 330.82,-367.44 315.37,-352.33"/>
<polygon fill="black" stroke="black" points="318.21,-350.22 308.62,-345.74 313.32,-355.23 318.21,-350.22"/>
</g>
<!-- σ -->
<g id="node3" class="node">
<title>σ</title>
<ellipse fill="none" stroke="black" cx="291" cy="-198.48" rx="57.45" ry="40.66"/>
<text text-anchor="middle" x="291" y="-209.93" font-family="Times,serif" font-size="14.00">σ</text>
<text text-anchor="middle" x="291" y="-193.43" font-family="Times,serif" font-size="14.00">~</text>
<text text-anchor="middle" x="291" y="-176.93" font-family="Times,serif" font-size="14.00">HalfCauchy</text>
</g>
<!-- y -->
<g id="node8" class="node">
<title>y</title>
<ellipse fill="lightgrey" stroke="black" cx="172" cy="-81.16" rx="41.01" ry="40.66"/>
<text text-anchor="middle" x="172" y="-92.61" font-family="Times,serif" font-size="14.00">y</text>
<text text-anchor="middle" x="172" y="-76.11" font-family="Times,serif" font-size="14.00">~</text>
<text text-anchor="middle" x="172" y="-59.61" font-family="Times,serif" font-size="14.00">Normal</text>
</g>
<!-- σ&#45;&gt;y -->
<g id="edge7" class="edge">
<title>σ&#45;&gt;y</title>
<path fill="none" stroke="black" d="M257.54,-165.05C242.43,-150.41 224.54,-133.07 209.03,-118.05"/>
<polygon fill="black" stroke="black" points="211.88,-115.93 202.26,-111.48 207,-120.95 211.88,-115.93"/>
</g>
<!-- α -->
<g id="node4" class="node">
<title>α</title>
<ellipse fill="none" stroke="black" cx="170" cy="-315.79" rx="46.32" ry="40.66"/>
<text text-anchor="middle" x="170" y="-327.24" font-family="Times,serif" font-size="14.00">α</text>
<text text-anchor="middle" x="170" y="-310.74" font-family="Times,serif" font-size="14.00">~</text>
<text text-anchor="middle" x="170" y="-294.24" font-family="Times,serif" font-size="14.00">StudentT</text>
</g>
<!-- α&#45;&gt;μ -->
<g id="edge5" class="edge">
<title>α&#45;&gt;μ</title>
<path fill="none" stroke="black" d="M170,-274.78C170,-263.08 170,-250.29 170,-238.64"/>
<polygon fill="black" stroke="black" points="173.5,-238.95 170,-228.95 166.5,-238.95 173.5,-238.95"/>
</g>
<!-- b&#45;&gt;μ -->
<g id="edge3" class="edge">
<title>b&#45;&gt;μ</title>
<path fill="none" stroke="black" d="M254.31,-286.61C245.21,-276.4 234.75,-264.85 225,-254.54 219.06,-248.26 212.65,-241.68 206.38,-235.34"/>
<polygon fill="black" stroke="black" points="209.16,-233.18 199.63,-228.56 204.2,-238.11 209.16,-233.18"/>
</g>
<!-- z -->
<g id="node6" class="node">
<title>z</title>
<ellipse fill="none" stroke="black" cx="279" cy="-433.11" rx="41.01" ry="40.66"/>
<text text-anchor="middle" x="279" y="-444.56" font-family="Times,serif" font-size="14.00">z</text>
<text text-anchor="middle" x="279" y="-428.06" font-family="Times,serif" font-size="14.00">~</text>
<text text-anchor="middle" x="279" y="-411.56" font-family="Times,serif" font-size="14.00">Normal</text>
</g>
<!-- z&#45;&gt;b -->
<g id="edge2" class="edge">
<title>z&#45;&gt;b</title>
<path fill="none" stroke="black" d="M279,-392.1C279,-380.39 279,-367.61 279,-355.95"/>
<polygon fill="black" stroke="black" points="282.5,-356.27 279,-346.27 275.5,-356.27 282.5,-356.27"/>
</g>
<!-- μ&#45;&gt;y -->
<g id="edge6" class="edge">
<title>μ&#45;&gt;y</title>
<path fill="none" stroke="black" d="M170.49,-169.27C170.68,-158.44 170.9,-145.73 171.11,-133.41"/>
<polygon fill="black" stroke="black" points="174.6,-133.84 171.28,-123.78 167.61,-133.72 174.6,-133.84"/>
</g>
</g>
</svg>
